<svg xmlns="http://www.w3.org/2000/svg" xmlns:xlink="http://www.w3.org/1999/xlink" width="500" zoomAndPan="magnify" viewBox="0 0 375 374.999991" height="500" preserveAspectRatio="xMidYMid meet" version="1.0"><defs><g/><clipPath id="id1"><path d="M 112.058594 90.96875 L 254 90.96875 L 254 234.21875 L 112.058594 234.21875 Z M 112.058594 90.96875 " clip-rule="nonzero"/></clipPath><clipPath id="id2"><path d="M 133 128 L 292.808594 128 L 292.808594 210 L 133 210 Z M 133 128 " clip-rule="nonzero"/></clipPath></defs><g clip-path="url(#id1)"><path fill="#ffffff" d="M 242.953125 185.945312 C 241.328125 186.257812 239.628906 186.503906 237.871094 186.695312 C 228.617188 207.183594 207.9375 221.480469 183.980469 221.480469 C 151.40625 221.480469 124.910156 195.0625 124.910156 162.59375 C 124.910156 130.121094 151.40625 103.703125 183.980469 103.703125 C 202.320312 103.703125 218.730469 112.078125 229.574219 125.195312 L 245.039062 124.847656 C 232.363281 104.511719 209.757812 90.96875 183.980469 90.96875 C 144.300781 90.96875 112.136719 123.035156 112.136719 162.59375 C 112.136719 202.148438 144.300781 234.214844 183.980469 234.214844 C 217.363281 234.214844 245.429688 211.511719 253.492188 180.746094 C 250.441406 183.167969 246.867188 185.203125 242.953125 185.945312 Z M 242.953125 185.945312 " fill-opacity="1" fill-rule="nonzero"/></g><path fill="#ffffff" d="M 242.953125 185.945312 C 241.328125 186.257812 239.628906 186.503906 237.871094 186.695312 C 228.617188 207.183594 207.9375 221.480469 183.980469 221.480469 C 181.863281 221.480469 179.773438 221.367188 177.714844 221.148438 L 190.5625 233.910156 C 221.007812 231.152344 245.960938 209.464844 253.492188 180.75 C 250.4375 183.167969 246.867188 185.203125 242.953125 185.945312 Z M 242.953125 185.945312 " fill-opacity="1" fill-rule="nonzero"/><g clip-path="url(#id2)"><path fill="#c6c6c6" d="M 207.023438 130.722656 C 193.820312 131.007812 183.722656 145.253906 186.03125 156.847656 C 174.804688 157.066406 167.632812 163.644531 165.859375 173.921875 C 159.742188 170.855469 150.695312 170.101562 143.589844 161.050781 C 142.226562 158.746094 142.945312 156.949219 143.769531 156.128906 C 145.585938 153.894531 148.539062 150.828125 148.910156 146.722656 C 150.132812 145.5625 155.089844 142.558594 155.550781 140.726562 C 155.800781 139.722656 155.226562 138.09375 153.445312 137.988281 C 153.585938 137.484375 153.738281 135.339844 152.085938 134.078125 C 151.425781 133.574219 142.640625 134.566406 139.480469 136.410156 C 134.210938 144.078125 132.976562 154.554688 133.257812 163.496094 C 138.488281 181.3125 148.636719 198.523438 166.480469 210 C 173.488281 208.292969 176.011719 203.601562 176.613281 203.136719 C 194.996094 202.820312 205.832031 195.3125 212.304688 181.671875 C 214.246094 181.628906 228.378906 181.671875 238.792969 181.738281 C 252.320312 181.820312 260.746094 167.117188 260.746094 167.117188 L 205.023438 167.117188 C 205.023438 167.117188 204.488281 163.714844 211.898438 163.714844 C 227.605469 163.714844 255.871094 163.785156 258.765625 163.722656 C 269.789062 163.484375 275.640625 149.40625 275.640625 149.40625 L 211.796875 149.40625 C 212.710938 147.683594 213.921875 146.007812 219.535156 146.007812 C 236.671875 146.007812 259.621094 146.074219 274.136719 146.007812 C 287.097656 145.949219 292.730469 128.867188 292.730469 128.867188 C 292.730469 128.867188 208.75 130.683594 207.023438 130.722656 Z M 207.023438 130.722656 " fill-opacity="1" fill-rule="nonzero"/></g><g fill="#c6c6c6" fill-opacity="1"><g transform="translate(90.038928, 275.961231)"><g><path d="M 7.59375 0 L 0.625 -24.34375 L 6.25 -24.34375 L 10.28125 -7.421875 L 10.484375 -7.421875 L 14.921875 -24.34375 L 19.734375 -24.34375 L 24.171875 -7.390625 L 24.390625 -7.390625 L 28.421875 -24.34375 L 34.046875 -24.34375 L 27.078125 0 L 22.0625 0 L 17.421875 -15.921875 L 17.234375 -15.921875 L 12.609375 0 Z M 7.59375 0 "/></g></g></g><g fill="#c6c6c6" fill-opacity="1"><g transform="translate(124.707608, 275.961231)"><g><path d="M 7.265625 -24.34375 L 7.265625 0 L 2.109375 0 L 2.109375 -24.34375 Z M 7.265625 -24.34375 "/></g></g></g><g fill="#c6c6c6" fill-opacity="1"><g transform="translate(134.096793, 275.961231)"><g><path d="M 22.46875 -24.34375 L 22.46875 0 L 18.03125 0 L 7.4375 -15.3125 L 7.265625 -15.3125 L 7.265625 0 L 2.109375 0 L 2.109375 -24.34375 L 6.625 -24.34375 L 17.140625 -9.03125 L 17.359375 -9.03125 L 17.359375 -24.34375 Z M 22.46875 -24.34375 "/></g></g></g><g fill="#c6c6c6" fill-opacity="1"><g transform="translate(158.698836, 275.961231)"><g><path d="M 18.25 -16.46875 C 17.925781 -17.613281 17.328125 -18.507812 16.453125 -19.15625 C 15.578125 -19.800781 14.476562 -20.125 13.15625 -20.125 C 11.289062 -20.125 9.78125 -19.4375 8.625 -18.0625 C 7.476562 -16.6875 6.90625 -14.726562 6.90625 -12.1875 C 6.90625 -9.644531 7.46875 -7.679688 8.59375 -6.296875 C 9.726562 -4.910156 11.265625 -4.21875 13.203125 -4.21875 C 14.910156 -4.21875 16.253906 -4.660156 17.234375 -5.546875 C 18.210938 -6.441406 18.71875 -7.644531 18.75 -9.15625 L 13.53125 -9.15625 L 13.53125 -13.03125 L 23.703125 -13.03125 L 23.703125 -9.953125 C 23.703125 -7.828125 23.25 -5.992188 22.34375 -4.453125 C 21.445312 -2.910156 20.207031 -1.726562 18.625 -0.90625 C 17.050781 -0.0820312 15.238281 0.328125 13.1875 0.328125 C 10.894531 0.328125 8.882812 -0.175781 7.15625 -1.1875 C 5.4375 -2.195312 4.09375 -3.632812 3.125 -5.5 C 2.164062 -7.363281 1.6875 -9.578125 1.6875 -12.140625 C 1.6875 -14.773438 2.1875 -17.023438 3.1875 -18.890625 C 4.195312 -20.765625 5.5625 -22.195312 7.28125 -23.1875 C 9 -24.175781 10.929688 -24.671875 13.078125 -24.671875 C 14.910156 -24.671875 16.570312 -24.320312 18.0625 -23.625 C 19.550781 -22.925781 20.769531 -21.960938 21.71875 -20.734375 C 22.675781 -19.503906 23.265625 -18.082031 23.484375 -16.46875 Z M 18.25 -16.46875 "/></g></g></g><g fill="#c6c6c6" fill-opacity="1"><g transform="translate(184.156597, 275.961231)"><g><path d="M 15.3125 -17.34375 C 15.21875 -18.300781 14.804688 -19.046875 14.078125 -19.578125 C 13.359375 -20.109375 12.382812 -20.375 11.15625 -20.375 C 9.894531 -20.375 8.925781 -20.113281 8.25 -19.59375 C 7.582031 -19.082031 7.25 -18.4375 7.25 -17.65625 C 7.226562 -16.78125 7.597656 -16.117188 8.359375 -15.671875 C 9.128906 -15.222656 10.039062 -14.875 11.09375 -14.625 L 13.28125 -14.109375 C 14.695312 -13.785156 15.953125 -13.320312 17.046875 -12.71875 C 18.148438 -12.125 19.015625 -11.351562 19.640625 -10.40625 C 20.265625 -9.457031 20.578125 -8.304688 20.578125 -6.953125 C 20.578125 -4.722656 19.742188 -2.945312 18.078125 -1.625 C 16.421875 -0.3125 14.109375 0.34375 11.140625 0.34375 C 8.179688 0.34375 5.820312 -0.328125 4.0625 -1.671875 C 2.300781 -3.023438 1.390625 -5.015625 1.328125 -7.640625 L 6.3125 -7.640625 C 6.394531 -6.421875 6.875 -5.503906 7.75 -4.890625 C 8.625 -4.273438 9.734375 -3.96875 11.078125 -3.96875 C 12.378906 -3.96875 13.421875 -4.242188 14.203125 -4.796875 C 14.984375 -5.359375 15.378906 -6.082031 15.390625 -6.96875 C 15.378906 -7.789062 15.015625 -8.421875 14.296875 -8.859375 C 13.585938 -9.304688 12.570312 -9.6875 11.25 -10 L 8.609375 -10.671875 C 6.554688 -11.160156 4.9375 -11.941406 3.75 -13.015625 C 2.5625 -14.085938 1.96875 -15.519531 1.96875 -17.3125 C 1.96875 -18.78125 2.363281 -20.066406 3.15625 -21.171875 C 3.945312 -22.273438 5.039062 -23.132812 6.4375 -23.75 C 7.832031 -24.363281 9.421875 -24.671875 11.203125 -24.671875 C 13.003906 -24.671875 14.578125 -24.359375 15.921875 -23.734375 C 17.273438 -23.117188 18.328125 -22.257812 19.078125 -21.15625 C 19.835938 -20.0625 20.226562 -18.789062 20.25 -17.34375 Z M 15.3125 -17.34375 "/></g></g></g><g fill="#c6c6c6" fill-opacity="1"><g transform="translate(206.072617, 275.961231)"><g><path d="M 24.484375 -12.171875 C 24.484375 -9.515625 23.976562 -7.253906 22.96875 -5.390625 C 21.96875 -3.535156 20.609375 -2.117188 18.890625 -1.140625 C 17.171875 -0.160156 15.234375 0.328125 13.078125 0.328125 C 10.921875 0.328125 8.984375 -0.160156 7.265625 -1.140625 C 5.546875 -2.117188 4.1875 -3.539062 3.1875 -5.40625 C 2.1875 -7.28125 1.6875 -9.535156 1.6875 -12.171875 C 1.6875 -14.828125 2.1875 -17.082031 3.1875 -18.9375 C 4.1875 -20.800781 5.546875 -22.222656 7.265625 -23.203125 C 8.984375 -24.179688 10.921875 -24.671875 13.078125 -24.671875 C 15.234375 -24.671875 17.171875 -24.179688 18.890625 -23.203125 C 20.609375 -22.222656 21.96875 -20.800781 22.96875 -18.9375 C 23.976562 -17.082031 24.484375 -14.828125 24.484375 -12.171875 Z M 19.265625 -12.171875 C 19.265625 -14.753906 18.703125 -16.722656 17.578125 -18.078125 C 16.453125 -19.441406 14.953125 -20.125 13.078125 -20.125 C 11.210938 -20.125 9.71875 -19.441406 8.59375 -18.078125 C 7.46875 -16.722656 6.90625 -14.753906 6.90625 -12.171875 C 6.90625 -9.597656 7.46875 -7.628906 8.59375 -6.265625 C 9.71875 -4.898438 11.210938 -4.21875 13.078125 -4.21875 C 14.953125 -4.21875 16.453125 -4.898438 17.578125 -6.265625 C 18.703125 -7.628906 19.265625 -9.597656 19.265625 -12.171875 Z M 19.265625 -12.171875 "/></g></g></g><g fill="#c6c6c6" fill-opacity="1"><g transform="translate(232.24349, 275.961231)"><g><path d="M 2.109375 0 L 2.109375 -24.34375 L 7.265625 -24.34375 L 7.265625 -4.25 L 17.703125 -4.25 L 17.703125 0 Z M 2.109375 0 "/></g></g></g><g fill="#c6c6c6" fill-opacity="1"><g transform="translate(251.235789, 275.961231)"><g><path d="M 7.265625 -24.34375 L 7.265625 0 L 2.109375 0 L 2.109375 -24.34375 Z M 7.265625 -24.34375 "/></g></g></g><g fill="#c6c6c6" fill-opacity="1"><g transform="translate(260.624974, 275.961231)"><g><path d="M 10.75 0 L 2.109375 0 L 2.109375 -24.34375 L 10.8125 -24.34375 C 13.257812 -24.34375 15.367188 -23.851562 17.140625 -22.875 C 18.910156 -21.90625 20.269531 -20.515625 21.21875 -18.703125 C 22.175781 -16.890625 22.65625 -14.71875 22.65625 -12.1875 C 22.65625 -9.65625 22.175781 -7.476562 21.21875 -5.65625 C 20.257812 -3.832031 18.890625 -2.429688 17.109375 -1.453125 C 15.335938 -0.484375 13.21875 0 10.75 0 Z M 7.265625 -4.40625 L 10.53125 -4.40625 C 12.820312 -4.40625 14.554688 -5.023438 15.734375 -6.265625 C 16.921875 -7.503906 17.515625 -9.476562 17.515625 -12.1875 C 17.515625 -14.894531 16.921875 -16.863281 15.734375 -18.09375 C 14.554688 -19.320312 12.828125 -19.9375 10.546875 -19.9375 L 7.265625 -19.9375 Z M 7.265625 -4.40625 "/></g></g></g></svg>